<svg height="auto" viewBox="0 0 800 300" xmlns="http://www.w3.org/2000/svg"><path d="M0 299.861c8.4-2.777 25.2-10.203 42-13.886 16.8-3.682 25.2-1.242 42-4.527 16.8-3.286 25.2-3.26 42-11.9 16.8-8.641 25.2-29.358 42-31.305 16.8-1.948 25.2 25.028 42 21.567 16.8-3.46 25.2-29.87 42-38.872 16.8-9.001 25.2-3.252 42-6.137s25.2-4.058 42-8.288 25.2-4.91 42-12.862c16.8-7.95 25.2-18.784 42-26.894s25.2-18.983 42-13.656c16.8 5.326 25.2 47.328 42 40.288 16.8-7.04 25.2-64.318 42-75.489 16.8-11.171 25.2 20.406 42 19.633 16.8-.772 25.2-12.055 42-23.494 16.8-11.44 25.2-19.524 42-33.701s25.2-39.74 42-37.184c16.8 2.556 25.2 50.508 42 49.962 16.8-.546 33.6-42.153 42-52.691L800 300H0Z" fill="#444cf71a"/><path d="M0 299.861c8.4-2.777 25.2-10.203 42-13.886 16.8-3.682 25.2-1.242 42-4.527 16.8-3.286 25.2-3.26 42-11.9 16.8-8.641 25.2-29.358 42-31.305 16.8-1.948 25.2 25.028 42 21.567 16.8-3.46 25.2-29.87 42-38.872 16.8-9.001 25.2-3.252 42-6.137s25.2-4.058 42-8.288 25.2-4.91 42-12.862c16.8-7.95 25.2-18.784 42-26.894s25.2-18.983 42-13.656c16.8 5.326 25.2 47.328 42 40.288 16.8-7.04 25.2-64.318 42-75.489 16.8-11.171 25.2 20.406 42 19.633 16.8-.772 25.2-12.055 42-23.494 16.8-11.44 25.2-19.524 42-33.701s25.2-39.74 42-37.184c16.8 2.556 25.2 50.508 42 49.962 16.8-.546 33.6-42.153 42-52.691" fill="none" stroke="#444cf7" stroke-width="4"/><g fill="#444cf7"><circle cy="299.861" r="8"/><circle cx="42" cy="285.975" r="8"/><circle cx="84" cy="281.448" r="8"/><circle cx="126" cy="269.548" r="8"/><circle cx="168" cy="238.243" r="8"/><circle cx="210" cy="259.81" r="8"/><circle cx="252" cy="220.938" r="8"/><circle cx="294" cy="214.801" r="8"/><circle cx="336" cy="206.513" r="8"/><circle cx="378" cy="193.651" r="8"/><circle cx="420" cy="166.757" r="8"/><circle cx="462" cy="153.101" r="8"/><circle cx="504" cy="193.389" r="8"/><circle cx="546" cy="117.9" r="8"/><circle cx="588" cy="137.533" r="8"/><circle cx="630" cy="114.039" r="8"/><circle cx="672" cy="80.338" r="8"/><circle cx="714" cy="43.154" r="8"/><circle cx="756" cy="93.116" r="8"/><circle cx="798" cy="40.425" r="8"/></g></svg>