<svg height="auto" viewBox="0 0 800 300" xmlns="http://www.w3.org/2000/svg"><path d="M0 298.068c8.4-1.768 25.2-3.475 42-8.84 16.8-5.366 25.2-10.72 42-17.988 16.8-7.27 25.2-16.894 42-18.358 16.8-1.464 25.2 12.821 42 11.037 16.8-1.784 25.2-14.85 42-19.959 16.8-5.108 25.2 5.137 42-5.584s25.2-41.513 42-48.021c16.8-6.508 25.2 17.282 42 15.48 16.8-1.801 25.2-19.76 42-24.49 16.8-4.73 25.2 10.63 42 .842 16.8-9.787 25.2-43.664 42-49.777 16.8-6.113 25.2 12.412 42 19.213 16.8 6.8 25.2 10.343 42 14.792 16.8 4.45 25.2 13.85 42 7.454 16.8-6.394 25.2-15.493 42-39.428 16.8-23.935 25.2-82.252 42-80.247 16.8 2.006 25.2 90.96 42 90.276 16.8-.685 25.2-81.076 42-93.702 16.8-12.625 33.6 24.46 42 30.576L800 300H0Z" fill="#444cf71a"/><path d="M0 298.068c8.4-1.768 25.2-3.475 42-8.84 16.8-5.366 25.2-10.72 42-17.988 16.8-7.27 25.2-16.894 42-18.358 16.8-1.464 25.2 12.821 42 11.037 16.8-1.784 25.2-14.85 42-19.959 16.8-5.108 25.2 5.137 42-5.584s25.2-41.513 42-48.021c16.8-6.508 25.2 17.282 42 15.48 16.8-1.801 25.2-19.76 42-24.49 16.8-4.73 25.2 10.63 42 .842 16.8-9.787 25.2-43.664 42-49.777 16.8-6.113 25.2 12.412 42 19.213 16.8 6.8 25.2 10.343 42 14.792 16.8 4.45 25.2 13.85 42 7.454 16.8-6.394 25.2-15.493 42-39.428 16.8-23.935 25.2-82.252 42-80.247 16.8 2.006 25.2 90.96 42 90.276 16.8-.685 25.2-81.076 42-93.702 16.8-12.625 33.6 24.46 42 30.576" fill="none" stroke="#444cf7" stroke-width="4"/><g fill="#444cf7"><circle cy="298.068" r="8"/><circle cx="42" cy="289.228" r="8"/><circle cx="84" cy="271.24" r="8"/><circle cx="126" cy="252.882" r="8"/><circle cx="168" cy="263.919" r="8"/><circle cx="210" cy="243.96" r="8"/><circle cx="252" cy="238.376" r="8"/><circle cx="294" cy="190.355" r="8"/><circle cx="336" cy="205.836" r="8"/><circle cx="378" cy="181.345" r="8"/><circle cx="420" cy="182.187" r="8"/><circle cx="462" cy="132.41" r="8"/><circle cx="504" cy="151.623" r="8"/><circle cx="546" cy="166.415" r="8"/><circle cx="588" cy="173.869" r="8"/><circle cx="630" cy="134.441" r="8"/><circle cx="672" cy="54.194" r="8"/><circle cx="714" cy="144.47" r="8"/><circle cx="756" cy="50.768" r="8"/><circle cx="798" cy="81.344" r="8"/></g></svg>