<svg height="auto" viewBox="0 0 800 300" xmlns="http://www.w3.org/2000/svg"><path d="M0 299.054c8.4-2.464 25.2-8.27 42-12.32 16.8-4.05 25.2-3.718 42-7.93s25.2-4.808 42-13.13c16.8-8.322 25.2-20.165 42-28.482 16.8-8.318 25.2-10.927 42-13.107 16.8-2.18 25.2 2.49 42 2.209 16.8-.281 25.2-2.209 42-3.612 16.8-1.404 25.2 4.555 42-3.407 16.8-7.963 25.2-28.2 42-36.407 16.8-8.206 25.2-7.904 42-4.626 16.8 3.279 25.2 17.52 42 21.017 16.8 3.496 25.2 12.323 42-3.537s25.2-61.464 42-75.764c16.8-14.3 25.2 14.28 42 4.265 16.8-10.014 25.2-50.164 42-54.337 16.8-4.172 25.2 31.787 42 33.476s25.2-23.282 42-25.031c16.8-1.75 25.2 11.234 42 16.281 16.8 5.047 33.6 7.163 42 8.954L800 300H0Z" fill="#444cf71a"/><path d="M0 299.054c8.4-2.464 25.2-8.27 42-12.32 16.8-4.05 25.2-3.718 42-7.93s25.2-4.808 42-13.13c16.8-8.322 25.2-20.165 42-28.482 16.8-8.318 25.2-10.927 42-13.107 16.8-2.18 25.2 2.49 42 2.209 16.8-.281 25.2-2.209 42-3.612 16.8-1.404 25.2 4.555 42-3.407 16.8-7.963 25.2-28.2 42-36.407 16.8-8.206 25.2-7.904 42-4.626 16.8 3.279 25.2 17.52 42 21.017 16.8 3.496 25.2 12.323 42-3.537s25.2-61.464 42-75.764c16.8-14.3 25.2 14.28 42 4.265 16.8-10.014 25.2-50.164 42-54.337 16.8-4.172 25.2 31.787 42 33.476s25.2-23.282 42-25.031c16.8-1.75 25.2 11.234 42 16.281 16.8 5.047 33.6 7.163 42 8.954" fill="none" stroke="#444cf7" stroke-width="4"/><g fill="#444cf7"><circle cy="299.054" r="8"/><circle cx="42" cy="286.734" r="8"/><circle cx="84" cy="278.804" r="8"/><circle cx="126" cy="265.674" r="8"/><circle cx="168" cy="237.192" r="8"/><circle cx="210" cy="224.085" r="8"/><circle cx="252" cy="226.294" r="8"/><circle cx="294" cy="222.682" r="8"/><circle cx="336" cy="219.275" r="8"/><circle cx="378" cy="182.868" r="8"/><circle cx="420" cy="178.242" r="8"/><circle cx="462" cy="199.259" r="8"/><circle cx="504" cy="195.722" r="8"/><circle cx="546" cy="119.958" r="8"/><circle cx="588" cy="124.223" r="8"/><circle cx="630" cy="69.886" r="8"/><circle cx="672" cy="103.362" r="8"/><circle cx="714" cy="78.331" r="8"/><circle cx="756" cy="94.612" r="8"/><circle cx="798" cy="103.566" r="8"/></g></svg>