<svg height="auto" viewBox="0 0 800 300" xmlns="http://www.w3.org/2000/svg"><path d="M0 297.497c8.4-1.623 25.2-2.298 42-8.117 16.8-5.82 25.2-17.07 42-20.978 16.8-3.91 25.2 7.7 42 1.433s25.2-27.572 42-32.769c16.8-5.196 25.2 11.169 42 6.788 16.8-4.38 25.2-24.79 42-28.69 16.8-3.901 25.2 6.591 42 9.19 16.8 2.599 25.2 4.485 42 3.803 16.8-.682 25.2-.572 42-7.215 16.8-6.642 25.2-10.615 42-25.997 16.8-15.383 25.2-39.167 42-50.914s25.2-4.313 42-7.821c16.8-3.509 25.2-14.473 42-9.722 16.8 4.751 25.2 42.97 42 33.478 16.8-9.491 25.2-71.047 42-80.936 16.8-9.89 25.2 31.189 42 31.487 16.8.3 25.2-30.757 42-29.994 16.8.763 25.2 30.6 42 33.809 16.8 3.208 33.6-14.213 42-17.766L800 300H0Z" fill="#444cf71a"/><path d="M0 297.497c8.4-1.623 25.2-2.298 42-8.117 16.8-5.82 25.2-17.07 42-20.978 16.8-3.91 25.2 7.7 42 1.433s25.2-27.572 42-32.769c16.8-5.196 25.2 11.169 42 6.788 16.8-4.38 25.2-24.79 42-28.69 16.8-3.901 25.2 6.591 42 9.19 16.8 2.599 25.2 4.485 42 3.803 16.8-.682 25.2-.572 42-7.215 16.8-6.642 25.2-10.615 42-25.997 16.8-15.383 25.2-39.167 42-50.914s25.2-4.313 42-7.821c16.8-3.509 25.2-14.473 42-9.722 16.8 4.751 25.2 42.97 42 33.478 16.8-9.491 25.2-71.047 42-80.936 16.8-9.89 25.2 31.189 42 31.487 16.8.3 25.2-30.757 42-29.994 16.8.763 25.2 30.6 42 33.809 16.8 3.208 33.6-14.213 42-17.766" fill="none" stroke="#444cf7" stroke-width="4"/><g fill="#444cf7"><circle cy="297.497" r="8"/><circle cx="42" cy="289.38" r="8"/><circle cx="84" cy="268.402" r="8"/><circle cx="126" cy="269.835" r="8"/><circle cx="168" cy="237.066" r="8"/><circle cx="210" cy="243.854" r="8"/><circle cx="252" cy="215.163" r="8"/><circle cx="294" cy="224.354" r="8"/><circle cx="336" cy="228.157" r="8"/><circle cx="378" cy="220.942" r="8"/><circle cx="420" cy="194.945" r="8"/><circle cx="462" cy="144.031" r="8"/><circle cx="504" cy="136.21" r="8"/><circle cx="546" cy="126.488" r="8"/><circle cx="588" cy="159.966" r="8"/><circle cx="630" cy="79.03" r="8"/><circle cx="672" cy="110.517" r="8"/><circle cx="714" cy="80.523" r="8"/><circle cx="756" cy="114.332" r="8"/><circle cx="798" cy="96.566" r="8"/></g></svg>