<svg height="auto" viewBox="0 0 800 300" xmlns="http://www.w3.org/2000/svg"><path d="M0 298.258c8.4-2.29 25.2-8.528 42-11.447 16.8-2.92 25.2-.117 42-3.15 16.8-3.032 25.2-7 42-12.013s25.2-4.354 42-13.054 25.2-24.375 42-30.445 25.2 8.053 42 .096c16.8-7.957 25.2-33.125 42-39.88 16.8-6.756 25.2 12.19 42 6.103s25.2-29.24 42-36.541c16.8-7.302 25.2-2.504 42 .035s25.2 10.668 42 12.66c16.8 1.99 25.2.852 42-2.705s25.2-13.542 42-15.079c16.8-1.537 25.2 8.432 42 7.395 16.8-1.036 25.2-12.498 42-12.576 16.8-.078 25.2 27.58 42 12.185 16.8-15.393 25.2-70.154 42-89.153 16.8-19 25.2 8.134 42-5.844C772.8 50.867 789.6 13.608 798 .8L800 300H0Z" fill="#444cf71a"/><path d="M0 298.258c8.4-2.29 25.2-8.528 42-11.447 16.8-2.92 25.2-.117 42-3.15 16.8-3.032 25.2-7 42-12.013s25.2-4.354 42-13.054 25.2-24.375 42-30.445 25.2 8.053 42 .096c16.8-7.957 25.2-33.125 42-39.88 16.8-6.756 25.2 12.19 42 6.103s25.2-29.24 42-36.541c16.8-7.302 25.2-2.504 42 .035s25.2 10.668 42 12.66c16.8 1.99 25.2.852 42-2.705s25.2-13.542 42-15.079c16.8-1.537 25.2 8.432 42 7.395 16.8-1.036 25.2-12.498 42-12.576 16.8-.078 25.2 27.58 42 12.185 16.8-15.393 25.2-70.154 42-89.153 16.8-19 25.2 8.134 42-5.844C772.8 50.867 789.6 13.608 798 .8" fill="none" stroke="#444cf7" stroke-width="4"/><g fill="#444cf7"><circle cy="298.258" r="8"/><circle cx="42" cy="286.811" r="8"/><circle cx="84" cy="283.661" r="8"/><circle cx="126" cy="271.648" r="8"/><circle cx="168" cy="258.594" r="8"/><circle cx="210" cy="228.149" r="8"/><circle cx="252" cy="228.245" r="8"/><circle cx="294" cy="188.364" r="8"/><circle cx="336" cy="194.468" r="8"/><circle cx="378" cy="157.927" r="8"/><circle cx="420" cy="157.962" r="8"/><circle cx="462" cy="170.621" r="8"/><circle cx="504" cy="167.917" r="8"/><circle cx="546" cy="152.838" r="8"/><circle cx="588" cy="160.233" r="8"/><circle cx="630" cy="147.657" r="8"/><circle cx="672" cy="159.842" r="8"/><circle cx="714" cy="70.689" r="8"/><circle cx="756" cy="64.845" r="8"/><circle cx="798" cy=".799" r="8"/></g></svg>