<svg height="auto" viewBox="0 0 800 300" xmlns="http://www.w3.org/2000/svg"><path d="M0 296.72c8.4-1.729 25.2-4.359 42-8.641s25.2-5.903 42-12.77c16.8-6.87 25.2-18.315 42-21.571 16.8-3.256 25.2 4.654 42 5.292 16.8.638 25.2 6.231 42-2.102 16.8-8.334 25.2-31.632 42-39.568 16.8-7.935 25.2 1.582 42-.109 16.8-1.69 25.2-5.273 42-8.343 16.8-3.069 25.2-7.875 42-7.002 16.8.872 25.2 20.54 42 11.365 16.8-9.174 25.2-47.868 42-57.236 16.8-9.369 25.2 13.374 42 10.394 16.8-2.98 25.2-18.876 42-25.298 16.8-6.421 25.2-.162 42-6.81 16.8-6.65 25.2-32.183 42-26.434 16.8 5.75 25.2 60.44 42 55.178 16.8-5.261 25.2-79.61 42-81.486 16.8-1.876 25.2 82.384 42 72.106 16.8-10.278 33.6-98.795 42-123.494L800 300H0Z" fill="#444cf71a"/><path d="M0 296.72c8.4-1.729 25.2-4.359 42-8.641s25.2-5.903 42-12.77c16.8-6.87 25.2-18.315 42-21.571 16.8-3.256 25.2 4.654 42 5.292 16.8.638 25.2 6.231 42-2.102 16.8-8.334 25.2-31.632 42-39.568 16.8-7.935 25.2 1.582 42-.109 16.8-1.69 25.2-5.273 42-8.343 16.8-3.069 25.2-7.875 42-7.002 16.8.872 25.2 20.54 42 11.365 16.8-9.174 25.2-47.868 42-57.236 16.8-9.369 25.2 13.374 42 10.394 16.8-2.98 25.2-18.876 42-25.298 16.8-6.421 25.2-.162 42-6.81 16.8-6.65 25.2-32.183 42-26.434 16.8 5.75 25.2 60.44 42 55.178 16.8-5.261 25.2-79.61 42-81.486 16.8-1.876 25.2 82.384 42 72.106 16.8-10.278 33.6-98.795 42-123.494" fill="none" stroke="#444cf7" stroke-width="4"/><g fill="#444cf7"><circle cy="296.72" r="8"/><circle cx="42" cy="288.079" r="8"/><circle cx="84" cy="275.308" r="8"/><circle cx="126" cy="253.738" r="8"/><circle cx="168" cy="259.03" r="8"/><circle cx="210" cy="256.928" r="8"/><circle cx="252" cy="217.36" r="8"/><circle cx="294" cy="217.251" r="8"/><circle cx="336" cy="208.908" r="8"/><circle cx="378" cy="201.906" r="8"/><circle cx="420" cy="213.271" r="8"/><circle cx="462" cy="156.035" r="8"/><circle cx="504" cy="166.429" r="8"/><circle cx="546" cy="141.131" r="8"/><circle cx="588" cy="134.32" r="8"/><circle cx="630" cy="107.887" r="8"/><circle cx="672" cy="163.065" r="8"/><circle cx="714" cy="81.579" r="8"/><circle cx="756" cy="153.685" r="8"/><circle cx="798" cy="30.191" r="8"/></g></svg>